<mxfile host="Electron" modified="2025-03-09T19:22:59.264Z" agent="Mozilla/5.0 (Windows NT 10.0; Win64; x64) AppleWebKit/537.36 (KHTML, like Gecko) draw.io/22.0.2 Chrome/114.0.5735.289 Electron/25.8.4 Safari/537.36" etag="T5PCYaLvU5ILh0zwXCwy" version="22.0.2" type="device">
  <diagram name="Страница — 1" id="Kg3YG8OHuA07XI6WCOvU">
    <mxGraphModel dx="472" dy="828" grid="1" gridSize="10" guides="1" tooltips="1" connect="1" arrows="1" fold="1" page="1" pageScale="1" pageWidth="827" pageHeight="1169" background="#ffffff" math="0" shadow="0">
      <root>
        <mxCell id="0" />
        <mxCell id="1" parent="0" />
        <mxCell id="xFeKU9aDVCi5_IBNIJor-1" value="" style="endArrow=none;dashed=1;html=1;rounded=0;" parent="1" source="xFeKU9aDVCi5_IBNIJor-3" edge="1">
          <mxGeometry width="50" height="50" relative="1" as="geometry">
            <mxPoint x="135" y="600" as="sourcePoint" />
            <mxPoint x="135" y="130" as="targetPoint" />
          </mxGeometry>
        </mxCell>
        <mxCell id="xFeKU9aDVCi5_IBNIJor-2" value="" style="endArrow=none;dashed=1;html=1;rounded=0;" parent="1" target="xFeKU9aDVCi5_IBNIJor-3" edge="1">
          <mxGeometry width="50" height="50" relative="1" as="geometry">
            <mxPoint x="135" y="640" as="sourcePoint" />
            <mxPoint x="135" y="130" as="targetPoint" />
          </mxGeometry>
        </mxCell>
        <mxCell id="xFeKU9aDVCi5_IBNIJor-3" value="" style="html=1;points=[[0,0,0,0,5],[0,1,0,0,-5],[1,0,0,0,5],[1,1,0,0,-5]];perimeter=orthogonalPerimeter;outlineConnect=0;targetShapes=umlLifeline;portConstraint=eastwest;newEdgeStyle={&quot;curved&quot;:0,&quot;rounded&quot;:0};" parent="1" vertex="1">
          <mxGeometry x="125" y="160" width="20" height="460" as="geometry" />
        </mxCell>
        <mxCell id="xFeKU9aDVCi5_IBNIJor-4" value="" style="endArrow=none;dashed=1;html=1;rounded=0;" parent="1" source="xFeKU9aDVCi5_IBNIJor-6" edge="1">
          <mxGeometry width="50" height="50" relative="1" as="geometry">
            <mxPoint x="560" y="600" as="sourcePoint" />
            <mxPoint x="560" y="130" as="targetPoint" />
          </mxGeometry>
        </mxCell>
        <mxCell id="xFeKU9aDVCi5_IBNIJor-5" value="" style="endArrow=none;dashed=1;html=1;rounded=0;" parent="1" target="xFeKU9aDVCi5_IBNIJor-6" edge="1">
          <mxGeometry width="50" height="50" relative="1" as="geometry">
            <mxPoint x="560" y="640" as="sourcePoint" />
            <mxPoint x="560" y="130" as="targetPoint" />
          </mxGeometry>
        </mxCell>
        <mxCell id="xFeKU9aDVCi5_IBNIJor-6" value="" style="html=1;points=[[0,0,0,0,5],[0,1,0,0,-5],[1,0,0,0,5],[1,1,0,0,-5]];perimeter=orthogonalPerimeter;outlineConnect=0;targetShapes=umlLifeline;portConstraint=eastwest;newEdgeStyle={&quot;curved&quot;:0,&quot;rounded&quot;:0};" parent="1" vertex="1">
          <mxGeometry x="550" y="430" width="20" height="90" as="geometry" />
        </mxCell>
        <mxCell id="xFeKU9aDVCi5_IBNIJor-7" value="Неавторизованный&lt;br&gt;пользователь" style="shape=umlActor;verticalLabelPosition=bottom;verticalAlign=top;html=1;outlineConnect=0;" parent="1" vertex="1">
          <mxGeometry x="120" y="30" width="30" height="60" as="geometry" />
        </mxCell>
        <mxCell id="xFeKU9aDVCi5_IBNIJor-8" value="" style="endArrow=none;dashed=1;html=1;rounded=0;" parent="1" edge="1">
          <mxGeometry width="50" height="50" relative="1" as="geometry">
            <mxPoint x="350" y="160.0000000000001" as="sourcePoint" />
            <mxPoint x="350" y="130" as="targetPoint" />
          </mxGeometry>
        </mxCell>
        <mxCell id="xFeKU9aDVCi5_IBNIJor-9" value="" style="endArrow=none;dashed=1;html=1;rounded=0;" parent="1" source="xFeKU9aDVCi5_IBNIJor-27" edge="1">
          <mxGeometry width="50" height="50" relative="1" as="geometry">
            <mxPoint x="350" y="640" as="sourcePoint" />
            <mxPoint x="350" y="160" as="targetPoint" />
          </mxGeometry>
        </mxCell>
        <mxCell id="xFeKU9aDVCi5_IBNIJor-10" value=": Устройство" style="rounded=0;whiteSpace=wrap;html=1;" parent="1" vertex="1">
          <mxGeometry x="290" y="70" width="120" height="60" as="geometry" />
        </mxCell>
        <mxCell id="xFeKU9aDVCi5_IBNIJor-11" value=": Сервер" style="rounded=0;whiteSpace=wrap;html=1;" parent="1" vertex="1">
          <mxGeometry x="500" y="70" width="120" height="60" as="geometry" />
        </mxCell>
        <mxCell id="xFeKU9aDVCi5_IBNIJor-12" value="Открыть страницу&lt;br&gt;авторизации" style="html=1;verticalAlign=bottom;endArrow=block;labelBackgroundColor=none;fontFamily=Verdana;fontSize=12;elbow=vertical;edgeStyle=orthogonalEdgeStyle;curved=1;entryX=1;entryY=0.286;entryPerimeter=0;" parent="1" edge="1">
          <mxGeometry x="0.0811" y="50" relative="1" as="geometry">
            <mxPoint x="360" y="280.0000000000001" as="sourcePoint" />
            <mxPoint x="370.3333333333335" y="318.33333333333337" as="targetPoint" />
            <Array as="points">
              <mxPoint x="420" y="280" />
              <mxPoint x="420" y="318" />
            </Array>
            <mxPoint as="offset" />
          </mxGeometry>
        </mxCell>
        <mxCell id="xFeKU9aDVCi5_IBNIJor-13" value="" style="endArrow=classic;html=1;rounded=0;entryX=0;entryY=0.095;entryDx=0;entryDy=0;entryPerimeter=0;" parent="1" source="xFeKU9aDVCi5_IBNIJor-3" edge="1">
          <mxGeometry width="50" height="50" relative="1" as="geometry">
            <mxPoint x="250" y="330" as="sourcePoint" />
            <mxPoint x="340" y="199.9000000000002" as="targetPoint" />
          </mxGeometry>
        </mxCell>
        <mxCell id="xFeKU9aDVCi5_IBNIJor-14" value="Открыть сайт" style="edgeLabel;html=1;align=center;verticalAlign=middle;resizable=0;points=[];" parent="xFeKU9aDVCi5_IBNIJor-13" vertex="1" connectable="0">
          <mxGeometry x="-0.019" y="1" relative="1" as="geometry">
            <mxPoint y="-9" as="offset" />
          </mxGeometry>
        </mxCell>
        <mxCell id="xFeKU9aDVCi5_IBNIJor-15" value="Отобразить приветственную&lt;br&gt;&amp;nbsp;страницу сайта" style="html=1;verticalAlign=bottom;endArrow=classic;dashed=1;endSize=8;curved=0;rounded=0;exitX=0;exitY=1;exitDx=0;exitDy=-5;exitPerimeter=0;endFill=1;" parent="1" source="xFeKU9aDVCi5_IBNIJor-27" target="xFeKU9aDVCi5_IBNIJor-3" edge="1">
          <mxGeometry relative="1" as="geometry">
            <mxPoint x="330" y="240" as="sourcePoint" />
            <mxPoint x="240" y="240" as="targetPoint" />
          </mxGeometry>
        </mxCell>
        <mxCell id="xFeKU9aDVCi5_IBNIJor-16" value="" style="endArrow=classic;html=1;rounded=0;" parent="1" edge="1">
          <mxGeometry width="50" height="50" relative="1" as="geometry">
            <mxPoint x="150" y="280" as="sourcePoint" />
            <mxPoint x="340" y="280.0000000000001" as="targetPoint" />
          </mxGeometry>
        </mxCell>
        <mxCell id="xFeKU9aDVCi5_IBNIJor-17" value="Открыть страницу авторизации" style="edgeLabel;html=1;align=center;verticalAlign=middle;resizable=0;points=[];" parent="xFeKU9aDVCi5_IBNIJor-16" vertex="1" connectable="0">
          <mxGeometry x="-0.1729" y="-2" relative="1" as="geometry">
            <mxPoint x="14" y="-12" as="offset" />
          </mxGeometry>
        </mxCell>
        <mxCell id="xFeKU9aDVCi5_IBNIJor-18" value="Отобразить авторизационную&lt;br&gt;&amp;nbsp;страницу&amp;nbsp;" style="html=1;verticalAlign=bottom;endArrow=classic;dashed=1;endSize=8;curved=0;rounded=0;endFill=1;" parent="1" edge="1">
          <mxGeometry relative="1" as="geometry">
            <mxPoint x="340" y="350" as="sourcePoint" />
            <mxPoint x="150" y="350" as="targetPoint" />
          </mxGeometry>
        </mxCell>
        <mxCell id="xFeKU9aDVCi5_IBNIJor-19" value="" style="endArrow=classic;html=1;rounded=0;" parent="1" edge="1">
          <mxGeometry width="50" height="50" relative="1" as="geometry">
            <mxPoint x="150" y="410" as="sourcePoint" />
            <mxPoint x="340" y="410" as="targetPoint" />
          </mxGeometry>
        </mxCell>
        <mxCell id="xFeKU9aDVCi5_IBNIJor-20" value="Ввести авторизационные данные" style="edgeLabel;html=1;align=center;verticalAlign=middle;resizable=0;points=[];" parent="xFeKU9aDVCi5_IBNIJor-19" vertex="1" connectable="0">
          <mxGeometry x="-0.1729" y="-2" relative="1" as="geometry">
            <mxPoint x="14" y="-12" as="offset" />
          </mxGeometry>
        </mxCell>
        <mxCell id="xFeKU9aDVCi5_IBNIJor-21" value="" style="endArrow=classic;html=1;rounded=0;" parent="1" target="xFeKU9aDVCi5_IBNIJor-6" edge="1">
          <mxGeometry width="50" height="50" relative="1" as="geometry">
            <mxPoint x="360" y="440" as="sourcePoint" />
            <mxPoint x="550" y="440" as="targetPoint" />
          </mxGeometry>
        </mxCell>
        <mxCell id="xFeKU9aDVCi5_IBNIJor-22" value="Передать данные" style="edgeLabel;html=1;align=center;verticalAlign=middle;resizable=0;points=[];" parent="xFeKU9aDVCi5_IBNIJor-21" vertex="1" connectable="0">
          <mxGeometry x="-0.1729" y="-2" relative="1" as="geometry">
            <mxPoint x="14" y="-12" as="offset" />
          </mxGeometry>
        </mxCell>
        <mxCell id="xFeKU9aDVCi5_IBNIJor-23" value="" style="html=1;points=[];perimeter=orthogonalPerimeter;rounded=0;shadow=0;comic=0;labelBackgroundColor=none;strokeWidth=1;fontFamily=Verdana;fontSize=12;align=center;" parent="1" vertex="1">
          <mxGeometry x="560" y="470" width="20" height="39" as="geometry" />
        </mxCell>
        <mxCell id="xFeKU9aDVCi5_IBNIJor-24" value="&lt;font style=&quot;font-size: 11px;&quot;&gt;Проверить&lt;br&gt;переданные данные&lt;/font&gt;" style="html=1;verticalAlign=bottom;endArrow=block;labelBackgroundColor=none;fontFamily=Verdana;fontSize=12;elbow=vertical;edgeStyle=orthogonalEdgeStyle;curved=1;entryX=1;entryY=0.286;entryPerimeter=0;" parent="1" edge="1">
          <mxGeometry x="-0.189" y="20" relative="1" as="geometry">
            <mxPoint x="570" y="450.0000000000001" as="sourcePoint" />
            <mxPoint x="580.3333333333335" y="488.33333333333337" as="targetPoint" />
            <Array as="points">
              <mxPoint x="630" y="450" />
              <mxPoint x="630" y="488" />
            </Array>
            <mxPoint as="offset" />
          </mxGeometry>
        </mxCell>
        <mxCell id="xFeKU9aDVCi5_IBNIJor-25" value="Вернуть результат&lt;br&gt;проверки данных" style="html=1;verticalAlign=bottom;endArrow=classic;dashed=1;endSize=8;curved=0;rounded=0;endFill=1;" parent="1" source="xFeKU9aDVCi5_IBNIJor-6" edge="1">
          <mxGeometry relative="1" as="geometry">
            <mxPoint x="490" y="510" as="sourcePoint" />
            <mxPoint x="370" y="510" as="targetPoint" />
          </mxGeometry>
        </mxCell>
        <mxCell id="xFeKU9aDVCi5_IBNIJor-26" value="" style="endArrow=none;dashed=1;html=1;rounded=0;" parent="1" source="xFeKU9aDVCi5_IBNIJor-29" target="xFeKU9aDVCi5_IBNIJor-27" edge="1">
          <mxGeometry width="50" height="50" relative="1" as="geometry">
            <mxPoint x="350" y="640" as="sourcePoint" />
            <mxPoint x="350" y="160" as="targetPoint" />
          </mxGeometry>
        </mxCell>
        <mxCell id="xFeKU9aDVCi5_IBNIJor-27" value="" style="html=1;points=[[0,0,0,0,5],[0,1,0,0,-5],[1,0,0,0,5],[1,1,0,0,-5]];perimeter=orthogonalPerimeter;outlineConnect=0;targetShapes=umlLifeline;portConstraint=eastwest;newEdgeStyle={&quot;curved&quot;:0,&quot;rounded&quot;:0};" parent="1" vertex="1">
          <mxGeometry x="340" y="170" width="20" height="80" as="geometry" />
        </mxCell>
        <mxCell id="xFeKU9aDVCi5_IBNIJor-28" value="" style="endArrow=none;dashed=1;html=1;rounded=0;" parent="1" target="xFeKU9aDVCi5_IBNIJor-29" edge="1">
          <mxGeometry width="50" height="50" relative="1" as="geometry">
            <mxPoint x="350" y="640" as="sourcePoint" />
            <mxPoint x="350" y="250" as="targetPoint" />
          </mxGeometry>
        </mxCell>
        <mxCell id="xFeKU9aDVCi5_IBNIJor-29" value="" style="html=1;points=[[0,0,0,0,5],[0,1,0,0,-5],[1,0,0,0,5],[1,1,0,0,-5]];perimeter=orthogonalPerimeter;outlineConnect=0;targetShapes=umlLifeline;portConstraint=eastwest;newEdgeStyle={&quot;curved&quot;:0,&quot;rounded&quot;:0};" parent="1" vertex="1">
          <mxGeometry x="340" y="270" width="20" height="350" as="geometry" />
        </mxCell>
        <mxCell id="xFeKU9aDVCi5_IBNIJor-30" value="" style="html=1;points=[];perimeter=orthogonalPerimeter;rounded=0;shadow=0;comic=0;labelBackgroundColor=none;strokeWidth=1;fontFamily=Verdana;fontSize=12;align=center;" parent="1" vertex="1">
          <mxGeometry x="350" y="300" width="20" height="39" as="geometry" />
        </mxCell>
        <mxCell id="xFeKU9aDVCi5_IBNIJor-31" value="" style="html=1;points=[];perimeter=orthogonalPerimeter;rounded=0;shadow=0;comic=0;labelBackgroundColor=none;strokeWidth=1;fontFamily=Verdana;fontSize=12;align=center;" parent="1" vertex="1">
          <mxGeometry x="350" y="565" width="20" height="39" as="geometry" />
        </mxCell>
        <mxCell id="xFeKU9aDVCi5_IBNIJor-32" value="&lt;font style=&quot;font-size: 11px;&quot;&gt;Открыть главную&lt;br style=&quot;border-color: var(--border-color); font-family: Helvetica;&quot;&gt;&lt;span style=&quot;font-family: Helvetica; background-color: rgb(255, 255, 255);&quot;&gt;&amp;nbsp;страницу&lt;/span&gt;&lt;/font&gt;" style="html=1;verticalAlign=bottom;endArrow=block;labelBackgroundColor=none;fontFamily=Verdana;fontSize=12;elbow=vertical;edgeStyle=orthogonalEdgeStyle;curved=1;entryX=1.2;entryY=0.769;entryPerimeter=0;entryDx=0;entryDy=0;" parent="1" source="xFeKU9aDVCi5_IBNIJor-29" target="xFeKU9aDVCi5_IBNIJor-31" edge="1">
          <mxGeometry x="0.3712" y="60" relative="1" as="geometry">
            <mxPoint x="360" y="530.0000000000001" as="sourcePoint" />
            <mxPoint x="370.3333333333335" y="568.3333333333334" as="targetPoint" />
            <Array as="points">
              <mxPoint x="420" y="550" />
              <mxPoint x="420" y="590" />
              <mxPoint x="374" y="590" />
            </Array>
            <mxPoint x="60" y="-60" as="offset" />
          </mxGeometry>
        </mxCell>
        <mxCell id="xFeKU9aDVCi5_IBNIJor-33" value="Отобразить главную&lt;br&gt;&amp;nbsp;страницу сайта" style="html=1;verticalAlign=bottom;endArrow=classic;dashed=1;endSize=8;curved=0;rounded=0;exitX=0;exitY=1;exitDx=0;exitDy=-5;exitPerimeter=0;endFill=1;" parent="1" edge="1">
          <mxGeometry relative="1" as="geometry">
            <mxPoint x="340" y="600" as="sourcePoint" />
            <mxPoint x="145" y="600" as="targetPoint" />
          </mxGeometry>
        </mxCell>
        <mxCell id="xFeKU9aDVCi5_IBNIJor-34" value="loop" style="shape=umlFrame;whiteSpace=wrap;html=1;pointerEvents=0;" parent="1" vertex="1">
          <mxGeometry x="270" y="420" width="450" height="120" as="geometry" />
        </mxCell>
      </root>
    </mxGraphModel>
  </diagram>
</mxfile>
